<svg xmlns="http://www.w3.org/2000/svg"
     width="288"
     height="288">
    <rect x="0" y="0" width="100%" height="100%" fill="rgb(166, 75, 185)"/>
    <polyline points="0, 0, 36.0, 36.0, 0, 36.0, 0, 0" stroke="#000" stroke-opacity="0.02"
              fill-opacity="0.098" fill="#222" transform="translate(0.0, 36.0) scale(1, -1)"/>
    <polyline points="0, 0, 36.0, 36.0, 0, 36.0, 0, 0" stroke="#000" stroke-opacity="0.02"
              fill-opacity="0.098" fill="#222" transform="translate(72.0, 36.0) scale(-1, -1)"/>
    <polyline points="0, 0, 36.0, 36.0, 0, 36.0, 0, 0" stroke="#000" stroke-opacity="0.02"
              fill-opacity="0.098" fill="#222" transform="translate(0.0, 36.0) scale(1, 1)"/>
    <polyline points="0, 0, 36.0, 36.0, 0, 36.0, 0, 0" stroke="#000" stroke-opacity="0.02"
              fill-opacity="0.098" fill="#222" transform="translate(72.0, 36.0) scale(-1, 1)"/>
    <polyline points="0, 0, 36.0, 36.0, 0, 36.0, 0, 0" stroke="#000" stroke-opacity="0.02"
              fill-opacity="0.08933333333333333" fill="#ddd"
              transform="translate(108.0, 0.0) scale(-1, 1)"/>
    <polyline points="0, 0, 36.0, 36.0, 0, 36.0, 0, 0" stroke="#000" stroke-opacity="0.02"
              fill-opacity="0.08933333333333333" fill="#ddd"
              transform="translate(108.0, 72.0) scale(1, -1)"/>
    <polyline points="0, 0, 36.0, 36.0, 0, 36.0, 0, 0" stroke="#000" stroke-opacity="0.02"
              fill-opacity="0.05466666666666667" fill="#ddd"
              transform="translate(108.0, 72.0) scale(-1, -1)"/>
    <polyline points="0, 0, 36.0, 36.0, 0, 36.0, 0, 0" stroke="#000" stroke-opacity="0.02"
              fill-opacity="0.05466666666666667" fill="#ddd"
              transform="translate(108.0, 0.0) scale(1, 1)"/>
    <polyline points="0, 0, 36.0, 36.0, 0, 36.0, 0, 0" stroke="#000" stroke-opacity="0.02"
              fill-opacity="0.05466666666666667" fill="#ddd"
              transform="translate(144.0, 36.0) scale(1, -1)"/>
    <polyline points="0, 0, 36.0, 36.0, 0, 36.0, 0, 0" stroke="#000" stroke-opacity="0.02"
              fill-opacity="0.05466666666666667" fill="#ddd"
              transform="translate(216.0, 36.0) scale(-1, -1)"/>
    <polyline points="0, 0, 36.0, 36.0, 0, 36.0, 0, 0" stroke="#000" stroke-opacity="0.02"
              fill-opacity="0.05466666666666667" fill="#ddd"
              transform="translate(144.0, 36.0) scale(1, 1)"/>
    <polyline points="0, 0, 36.0, 36.0, 0, 36.0, 0, 0" stroke="#000" stroke-opacity="0.02"
              fill-opacity="0.05466666666666667" fill="#ddd"
              transform="translate(216.0, 36.0) scale(-1, 1)"/>
    <polyline points="0, 0, 36.0, 36.0, 0, 36.0, 0, 0" stroke="#000" stroke-opacity="0.02"
              fill-opacity="0.13266666666666665" fill="#222"
              transform="translate(252.0, 0.0) scale(-1, 1)"/>
    <polyline points="0, 0, 36.0, 36.0, 0, 36.0, 0, 0" stroke="#000" stroke-opacity="0.02"
              fill-opacity="0.13266666666666665" fill="#222"
              transform="translate(252.0, 72.0) scale(1, -1)"/>
    <polyline points="0, 0, 36.0, 36.0, 0, 36.0, 0, 0" stroke="#000" stroke-opacity="0.02"
              fill-opacity="0.11533333333333334" fill="#222"
              transform="translate(252.0, 72.0) scale(-1, -1)"/>
    <polyline points="0, 0, 36.0, 36.0, 0, 36.0, 0, 0" stroke="#000" stroke-opacity="0.02"
              fill-opacity="0.11533333333333334" fill="#222"
              transform="translate(252.0, 0.0) scale(1, 1)"/>
    <polyline points="0, 0, 36.0, 36.0, 0, 36.0, 0, 0" stroke="#000" stroke-opacity="0.02"
              fill-opacity="0.11533333333333334" fill="#222"
              transform="translate(36.0, 72.0) scale(-1, 1)"/>
    <polyline points="0, 0, 36.0, 36.0, 0, 36.0, 0, 0" stroke="#000" stroke-opacity="0.02"
              fill-opacity="0.11533333333333334" fill="#222"
              transform="translate(36.0, 144.0) scale(1, -1)"/>
    <polyline points="0, 0, 36.0, 36.0, 0, 36.0, 0, 0" stroke="#000" stroke-opacity="0.02"
              fill-opacity="0.028666666666666667" fill="#222"
              transform="translate(36.0, 144.0) scale(-1, -1)"/>
    <polyline points="0, 0, 36.0, 36.0, 0, 36.0, 0, 0" stroke="#000" stroke-opacity="0.02"
              fill-opacity="0.028666666666666667" fill="#222"
              transform="translate(36.0, 72.0) scale(1, 1)"/>
    <polyline points="0, 0, 36.0, 36.0, 0, 36.0, 0, 0" stroke="#000" stroke-opacity="0.02"
              fill-opacity="0.028666666666666667" fill="#222"
              transform="translate(72.0, 108.0) scale(1, -1)"/>
    <polyline points="0, 0, 36.0, 36.0, 0, 36.0, 0, 0" stroke="#000" stroke-opacity="0.02"
              fill-opacity="0.028666666666666667" fill="#222"
              transform="translate(144.0, 108.0) scale(-1, -1)"/>
    <polyline points="0, 0, 36.0, 36.0, 0, 36.0, 0, 0" stroke="#000" stroke-opacity="0.02"
              fill-opacity="0.028666666666666667" fill="#222"
              transform="translate(72.0, 108.0) scale(1, 1)"/>
    <polyline points="0, 0, 36.0, 36.0, 0, 36.0, 0, 0" stroke="#000" stroke-opacity="0.02"
              fill-opacity="0.028666666666666667" fill="#222"
              transform="translate(144.0, 108.0) scale(-1, 1)"/>
    <polyline points="0, 0, 36.0, 36.0, 0, 36.0, 0, 0" stroke="#000" stroke-opacity="0.02"
              fill-opacity="0.12400000000000001" fill="#ddd"
              transform="translate(180.0, 72.0) scale(-1, 1)"/>
    <polyline points="0, 0, 36.0, 36.0, 0, 36.0, 0, 0" stroke="#000" stroke-opacity="0.02"
              fill-opacity="0.12400000000000001" fill="#ddd"
              transform="translate(180.0, 144.0) scale(1, -1)"/>
    <polyline points="0, 0, 36.0, 36.0, 0, 36.0, 0, 0" stroke="#000" stroke-opacity="0.02"
              fill-opacity="0.11533333333333334" fill="#222"
              transform="translate(180.0, 144.0) scale(-1, -1)"/>
    <polyline points="0, 0, 36.0, 36.0, 0, 36.0, 0, 0" stroke="#000" stroke-opacity="0.02"
              fill-opacity="0.11533333333333334" fill="#222"
              transform="translate(180.0, 72.0) scale(1, 1)"/>
    <polyline points="0, 0, 36.0, 36.0, 0, 36.0, 0, 0" stroke="#000" stroke-opacity="0.02"
              fill-opacity="0.11533333333333334" fill="#222"
              transform="translate(216.0, 108.0) scale(1, -1)"/>
    <polyline points="0, 0, 36.0, 36.0, 0, 36.0, 0, 0" stroke="#000" stroke-opacity="0.02"
              fill-opacity="0.11533333333333334" fill="#222"
              transform="translate(288.0, 108.0) scale(-1, -1)"/>
    <polyline points="0, 0, 36.0, 36.0, 0, 36.0, 0, 0" stroke="#000" stroke-opacity="0.02"
              fill-opacity="0.11533333333333334" fill="#222"
              transform="translate(216.0, 108.0) scale(1, 1)"/>
    <polyline points="0, 0, 36.0, 36.0, 0, 36.0, 0, 0" stroke="#000" stroke-opacity="0.02"
              fill-opacity="0.11533333333333334" fill="#222"
              transform="translate(288.0, 108.0) scale(-1, 1)"/>
    <polyline points="0, 0, 36.0, 36.0, 0, 36.0, 0, 0" stroke="#000" stroke-opacity="0.02"
              fill-opacity="0.07200000000000001" fill="#ddd"
              transform="translate(0.0, 180.0) scale(1, -1)"/>
    <polyline points="0, 0, 36.0, 36.0, 0, 36.0, 0, 0" stroke="#000" stroke-opacity="0.02"
              fill-opacity="0.07200000000000001" fill="#ddd"
              transform="translate(72.0, 180.0) scale(-1, -1)"/>
    <polyline points="0, 0, 36.0, 36.0, 0, 36.0, 0, 0" stroke="#000" stroke-opacity="0.02"
              fill-opacity="0.07200000000000001" fill="#ddd"
              transform="translate(0.0, 180.0) scale(1, 1)"/>
    <polyline points="0, 0, 36.0, 36.0, 0, 36.0, 0, 0" stroke="#000" stroke-opacity="0.02"
              fill-opacity="0.07200000000000001" fill="#ddd"
              transform="translate(72.0, 180.0) scale(-1, 1)"/>
    <polyline points="0, 0, 36.0, 36.0, 0, 36.0, 0, 0" stroke="#000" stroke-opacity="0.02"
              fill-opacity="0.15" fill="#222" transform="translate(108.0, 144.0) scale(-1, 1)"/>
    <polyline points="0, 0, 36.0, 36.0, 0, 36.0, 0, 0" stroke="#000" stroke-opacity="0.02"
              fill-opacity="0.15" fill="#222" transform="translate(108.0, 216.0) scale(1, -1)"/>
    <polyline points="0, 0, 36.0, 36.0, 0, 36.0, 0, 0" stroke="#000" stroke-opacity="0.02"
              fill-opacity="0.14133333333333334" fill="#ddd"
              transform="translate(108.0, 216.0) scale(-1, -1)"/>
    <polyline points="0, 0, 36.0, 36.0, 0, 36.0, 0, 0" stroke="#000" stroke-opacity="0.02"
              fill-opacity="0.14133333333333334" fill="#ddd"
              transform="translate(108.0, 144.0) scale(1, 1)"/>
    <polyline points="0, 0, 36.0, 36.0, 0, 36.0, 0, 0" stroke="#000" stroke-opacity="0.02"
              fill-opacity="0.14133333333333334" fill="#ddd"
              transform="translate(144.0, 180.0) scale(1, -1)"/>
    <polyline points="0, 0, 36.0, 36.0, 0, 36.0, 0, 0" stroke="#000" stroke-opacity="0.02"
              fill-opacity="0.14133333333333334" fill="#ddd"
              transform="translate(216.0, 180.0) scale(-1, -1)"/>
    <polyline points="0, 0, 36.0, 36.0, 0, 36.0, 0, 0" stroke="#000" stroke-opacity="0.02"
              fill-opacity="0.14133333333333334" fill="#ddd"
              transform="translate(144.0, 180.0) scale(1, 1)"/>
    <polyline points="0, 0, 36.0, 36.0, 0, 36.0, 0, 0" stroke="#000" stroke-opacity="0.02"
              fill-opacity="0.14133333333333334" fill="#ddd"
              transform="translate(216.0, 180.0) scale(-1, 1)"/>
    <polyline points="0, 0, 36.0, 36.0, 0, 36.0, 0, 0" stroke="#000" stroke-opacity="0.02"
              fill-opacity="0.03733333333333333" fill="#ddd"
              transform="translate(252.0, 144.0) scale(-1, 1)"/>
    <polyline points="0, 0, 36.0, 36.0, 0, 36.0, 0, 0" stroke="#000" stroke-opacity="0.02"
              fill-opacity="0.03733333333333333" fill="#ddd"
              transform="translate(252.0, 216.0) scale(1, -1)"/>
    <polyline points="0, 0, 36.0, 36.0, 0, 36.0, 0, 0" stroke="#000" stroke-opacity="0.02"
              fill-opacity="0.12400000000000001" fill="#ddd"
              transform="translate(252.0, 216.0) scale(-1, -1)"/>
    <polyline points="0, 0, 36.0, 36.0, 0, 36.0, 0, 0" stroke="#000" stroke-opacity="0.02"
              fill-opacity="0.12400000000000001" fill="#ddd"
              transform="translate(252.0, 144.0) scale(1, 1)"/>
    <polyline points="0, 0, 36.0, 36.0, 0, 36.0, 0, 0" stroke="#000" stroke-opacity="0.02"
              fill-opacity="0.12400000000000001" fill="#ddd"
              transform="translate(36.0, 216.0) scale(-1, 1)"/>
    <polyline points="0, 0, 36.0, 36.0, 0, 36.0, 0, 0" stroke="#000" stroke-opacity="0.02"
              fill-opacity="0.12400000000000001" fill="#ddd"
              transform="translate(36.0, 288.0) scale(1, -1)"/>
    <polyline points="0, 0, 36.0, 36.0, 0, 36.0, 0, 0" stroke="#000" stroke-opacity="0.02"
              fill-opacity="0.08933333333333333" fill="#ddd"
              transform="translate(36.0, 288.0) scale(-1, -1)"/>
    <polyline points="0, 0, 36.0, 36.0, 0, 36.0, 0, 0" stroke="#000" stroke-opacity="0.02"
              fill-opacity="0.08933333333333333" fill="#ddd"
              transform="translate(36.0, 216.0) scale(1, 1)"/>
    <polyline points="0, 0, 36.0, 36.0, 0, 36.0, 0, 0" stroke="#000" stroke-opacity="0.02"
              fill-opacity="0.08933333333333333" fill="#ddd"
              transform="translate(72.0, 252.0) scale(1, -1)"/>
    <polyline points="0, 0, 36.0, 36.0, 0, 36.0, 0, 0" stroke="#000" stroke-opacity="0.02"
              fill-opacity="0.08933333333333333" fill="#ddd"
              transform="translate(144.0, 252.0) scale(-1, -1)"/>
    <polyline points="0, 0, 36.0, 36.0, 0, 36.0, 0, 0" stroke="#000" stroke-opacity="0.02"
              fill-opacity="0.08933333333333333" fill="#ddd"
              transform="translate(72.0, 252.0) scale(1, 1)"/>
    <polyline points="0, 0, 36.0, 36.0, 0, 36.0, 0, 0" stroke="#000" stroke-opacity="0.02"
              fill-opacity="0.08933333333333333" fill="#ddd"
              transform="translate(144.0, 252.0) scale(-1, 1)"/>
    <polyline points="0, 0, 36.0, 36.0, 0, 36.0, 0, 0" stroke="#000" stroke-opacity="0.02"
              fill-opacity="0.046" fill="#222" transform="translate(180.0, 216.0) scale(-1, 1)"/>
    <polyline points="0, 0, 36.0, 36.0, 0, 36.0, 0, 0" stroke="#000" stroke-opacity="0.02"
              fill-opacity="0.046" fill="#222" transform="translate(180.0, 288.0) scale(1, -1)"/>
    <polyline points="0, 0, 36.0, 36.0, 0, 36.0, 0, 0" stroke="#000" stroke-opacity="0.02"
              fill-opacity="0.03733333333333333" fill="#ddd"
              transform="translate(180.0, 288.0) scale(-1, -1)"/>
    <polyline points="0, 0, 36.0, 36.0, 0, 36.0, 0, 0" stroke="#000" stroke-opacity="0.02"
              fill-opacity="0.03733333333333333" fill="#ddd"
              transform="translate(180.0, 216.0) scale(1, 1)"/>
    <polyline points="0, 0, 36.0, 36.0, 0, 36.0, 0, 0" stroke="#000" stroke-opacity="0.02"
              fill-opacity="0.03733333333333333" fill="#ddd"
              transform="translate(216.0, 252.0) scale(1, -1)"/>
    <polyline points="0, 0, 36.0, 36.0, 0, 36.0, 0, 0" stroke="#000" stroke-opacity="0.02"
              fill-opacity="0.03733333333333333" fill="#ddd"
              transform="translate(288.0, 252.0) scale(-1, -1)"/>
    <polyline points="0, 0, 36.0, 36.0, 0, 36.0, 0, 0" stroke="#000" stroke-opacity="0.02"
              fill-opacity="0.03733333333333333" fill="#ddd"
              transform="translate(216.0, 252.0) scale(1, 1)"/>
    <polyline points="0, 0, 36.0, 36.0, 0, 36.0, 0, 0" stroke="#000" stroke-opacity="0.02"
              fill-opacity="0.03733333333333333" fill="#ddd"
              transform="translate(288.0, 252.0) scale(-1, 1)"/>
</svg>